name rise45.9887peak57.8056fall74.9286.mot
datacolumns 19
datarows 32
range 13.06829000000000 13.11995100000000
endheader
time	ground_force1_vx	ground_force1_vy	ground_force1_vz	ground_force1_px	ground_force1_py	ground_force1_pz	ground_force2_vx	ground_force2_vy	ground_force2_vz	ground_force2_px	ground_force2_py	ground_force2_pz	ground_torque1_x	ground_torque1_y	ground_torque1_z	ground_torque2_x	ground_torque2_y	ground_torque2_z	
13.06829000000000	-46.31122300000000	803.29457100000002	56.90372500000000	0.15125700000000	0.00000000000000	0.12003800000000	-3.00770600000000	10.85315700000000	2.20850900000000	0.00000000000000	0.00000000000000	0.00000000000000	0.00000000000000	27.92085900000000	0.00000000000000	0.00000000000000	0.70749500000000	0.00000000000000	
13.06994800000000	-46.86607000000000	801.86860600000000	56.82044400000000	0.15025300000000	0.00000000000000	0.11999000000000	-4.02548200000000	15.46249400000000	3.00824700000000	0.00000000000000	0.00000000000000	0.00000000000000	0.00000000000000	27.84402400000000	0.00000000000000	0.00000000000000	0.97003300000000	0.00000000000000	
13.07161900000000	-47.42629400000000	800.32012199999997	56.71717200000000	0.14925300000000	0.00000000000000	0.11993900000000	-5.10167800000000	20.63478400000000	3.87010700000000	0.00000000000000	0.00000000000000	0.00000000000000	0.00000000000000	27.76493000000000	0.00000000000000	0.00000000000000	1.25483100000000	0.00000000000000	
13.07328900000000	-47.99188200000000	798.64655100000004	56.59326500000000	0.14825500000000	0.00000000000000	0.11988500000000	-6.19883400000000	26.27145100000000	4.76836400000000	0.36109900000000	0.00000000000000	-0.05893800000000	0.00000000000000	27.68369600000000	0.00000000000000	0.00000000000000	2.91039100000000	0.00000000000000	
13.07495500000000	-48.56277700000000	796.84538899999995	56.44809200000000	0.14726200000000	0.00000000000000	0.11982700000000	-7.27718100000000	32.25745400000000	5.67508900000000	0.36355600000000	0.00000000000000	-0.05961100000000	0.00000000000000	27.60042900000000	0.00000000000000	0.00000000000000	3.48783600000000	0.00000000000000	
13.07661600000000	-49.13888400000000	794.91419399999995	56.28104100000000	0.14627400000000	0.00000000000000	0.11976700000000	-8.29762700000000	38.47111000000000	6.56228500000000	0.36591700000000	0.00000000000000	-0.06021500000000	0.00000000000000	27.51522800000000	0.00000000000000	0.00000000000000	4.06119700000000	0.00000000000000	
13.07828700000000	-49.72005900000000	792.85059799999999	56.09151600000000	0.14529300000000	0.00000000000000	0.11970200000000	-9.22459600000000	44.79412800000000	7.40396100000000	0.36820200000000	0.00000000000000	-0.06076000000000	0.00000000000000	27.42817800000000	0.00000000000000	0.00000000000000	4.61478200000000	0.00000000000000	
13.07995300000000	-50.30611400000000	790.65230299999996	55.87894500000000	0.14432000000000	0.00000000000000	0.11963400000000	-10.02835400000000	51.12050300000000	8.17788200000000	0.37042800000000	0.00000000000000	-0.06125300000000	0.00000000000000	27.33935700000000	0.00000000000000	0.00000000000000	5.13491200000000	0.00000000000000	
13.08162100000000	-50.89681500000000	788.31709400000000	55.64278100000000	0.14335600000000	0.00000000000000	0.11956200000000	-10.68660700000000	57.36335700000000	8.86679900000000	0.37260800000000	0.00000000000000	-0.06170300000000	0.00000000000000	27.24882600000000	0.00000000000000	0.00000000000000	5.61070600000000	0.00000000000000	
13.08328800000000	-51.49187900000000	785.84283700000003	55.38250500000000	0.14240100000000	0.00000000000000	0.11948600000000	-11.18526900000000	63.45922700000000	9.45911400000000	0.37475200000000	0.00000000000000	-0.06211300000000	0.00000000000000	27.15663500000000	0.00000000000000	0.00000000000000	6.03453200000000	0.00000000000000	
13.08495100000000	-52.09097500000000	783.22748799999999	55.09762900000000	0.14145800000000	0.00000000000000	0.11940600000000	-11.51844700000000	69.36977800000000	9.94897600000000	0.37686500000000	0.00000000000000	-0.06249000000000	0.00000000000000	27.06282100000000	0.00000000000000	0.00000000000000	6.40212900000000	0.00000000000000	
13.08661400000000	-52.69372200000000	780.46909300000004	54.78769700000000	0.14052700000000	0.00000000000000	0.11932200000000	-11.68775900000000	75.08115200000000	10.33588900000000	0.37895300000000	0.00000000000000	-0.06283800000000	0.00000000000000	26.96740800000000	0.00000000000000	0.00000000000000	6.71243300000000	0.00000000000000	
13.08828900000000	-53.29968800000000	777.56579399999998	54.45229200000000	0.13960900000000	0.00000000000000	0.11923200000000	-11.70115700000000	80.60142600000000	10.62395000000000	0.38101800000000	0.00000000000000	-0.06315800000000	0.00000000000000	26.87040300000000	0.00000000000000	0.00000000000000	6.96717100000000	0.00000000000000	
13.08995600000000	-53.90839000000000	774.51583300000004	54.09103600000000	0.13870600000000	0.00000000000000	0.11913800000000	-11.57142600000000	85.95669800000000	10.82083800000000	0.38306300000000	0.00000000000000	-0.06345600000000	0.00000000000000	26.77180000000000	0.00000000000000	0.00000000000000	7.17029800000000	0.00000000000000	
13.09162300000000	-54.51929400000000	771.31755599999997	53.70359200000000	0.13781700000000	0.00000000000000	0.11904000000000	-11.31455100000000	91.18637699999999	10.93669000000000	0.38508900000000	0.00000000000000	-0.06373400000000	0.00000000000000	26.67157800000000	0.00000000000000	0.00000000000000	7.32734100000000	0.00000000000000	
13.09328800000000	-55.13181200000000	767.96941500000003	53.28967000000000	0.13694500000000	0.00000000000000	0.11893600000000	-10.94810500000000	96.33818800000000	10.98296000000000	0.38709500000000	0.00000000000000	-0.06399300000000	0.00000000000000	26.56970000000000	0.00000000000000	0.00000000000000	7.44473800000000	0.00000000000000	
13.09495600000000	-55.74530500000000	764.46997099999999	52.84902500000000	0.13608900000000	0.00000000000000	0.11882700000000	-10.48978700000000	101.46337400000000	10.97137700000000	0.38908100000000	0.00000000000000	-0.06423600000000	0.00000000000000	26.46611500000000	0.00000000000000	0.00000000000000	7.52919900000000	0.00000000000000	
13.09661400000000	-56.35908000000000	760.81789900000001	52.38146400000000	0.13525100000000	0.00000000000000	0.11871300000000	-9.95619700000000	106.61241400000000	10.91305800000000	0.39104600000000	0.00000000000000	-0.06446500000000	0.00000000000000	26.36075500000000	0.00000000000000	0.00000000000000	7.58716400000000	0.00000000000000	
13.09828800000000	-56.97239200000000	757.01198899999997	51.88684600000000	0.13443100000000	0.00000000000000	0.11859400000000	-9.36190700000000	111.83153100000000	10.81781100000000	0.39298900000000	0.00000000000000	-0.06468100000000	0.00000000000000	26.25353700000000	0.00000000000000	0.00000000000000	7.62436400000000	0.00000000000000	
13.09995300000000	-57.58444000000000	753.05114900000001	51.36508700000000	0.13363000000000	0.00000000000000	0.11846900000000	-8.71885300000000	117.16010199999999	10.69366900000000	0.39490700000000	0.00000000000000	-0.06488600000000	0.00000000000000	26.14436500000000	0.00000000000000	0.00000000000000	7.64551100000000	0.00000000000000	
13.10162100000000	-58.19437500000000	748.93440799999996	50.81615600000000	0.13284900000000	0.00000000000000	0.11833900000000	-8.03602500000000	122.62901500000000	10.54663300000000	0.39679800000000	0.00000000000000	-0.06508100000000	0.00000000000000	26.03312500000000	0.00000000000000	0.00000000000000	7.65412100000000	0.00000000000000	
13.10328700000000	-58.80129100000000	744.66091700000004	50.24008400000000	0.13208800000000	0.00000000000000	0.11820400000000	-7.31943800000000	128.25993500000001	10.38061200000000	0.39866000000000	0.00000000000000	-0.06526700000000	0.00000000000000	25.91969000000000	0.00000000000000	0.00000000000000	7.65244800000000	0.00000000000000	
13.10495500000000	-59.40423200000000	740.22995000000003	49.63696200000000	0.13134600000000	0.00000000000000	0.11806300000000	-6.57233100000000	134.06535700000001	10.19753300000000	0.40049100000000	0.00000000000000	-0.06544500000000	0.00000000000000	25.80392000000000	0.00000000000000	0.00000000000000	7.64153000000000	0.00000000000000	
13.10661600000000	-60.00219200000000	735.64090999999996	49.00694300000000	0.13062600000000	0.00000000000000	0.11791600000000	-5.79553600000000	140.04930300000001	9.99757600000000	0.40228700000000	0.00000000000000	-0.06561700000000	0.00000000000000	25.68565900000000	0.00000000000000	0.00000000000000	7.62131700000000	0.00000000000000	
13.10828400000000	-60.59411100000000	730.89332400000001	48.35024400000000	0.12992600000000	0.00000000000000	0.11776400000000	-4.98796100000000	146.20849799999999	9.77949300000000	0.40404600000000	0.00000000000000	-0.06578300000000	0.00000000000000	25.56474000000000	0.00000000000000	0.00000000000000	7.59085300000000	0.00000000000000	
13.10995600000000	-61.17888500000000	725.98685300000000	47.66714800000000	0.12924800000000	0.00000000000000	0.11760600000000	-4.14712400000000	152.53383500000001	9.54098600000000	0.40576500000000	0.00000000000000	-0.06594400000000	0.00000000000000	25.44098400000000	0.00000000000000	0.00000000000000	7.54849900000000	0.00000000000000	
13.11161600000000	-61.75535800000000	720.92128500000001	46.95800200000000	0.12859000000000	0.00000000000000	0.11744200000000	-3.26970300000000	159.01198199999999	9.27907900000000	0.40744100000000	0.00000000000000	-0.06610000000000	0.00000000000000	25.31420100000000	0.00000000000000	0.00000000000000	7.49216100000000	0.00000000000000	
13.11328200000000	-62.32232900000000	715.69654300000002	46.22322000000000	0.12795300000000	0.00000000000000	0.11727300000000	-2.35203900000000	165.62697000000000	8.99048300000000	0.40907200000000	0.00000000000000	-0.06625300000000	0.00000000000000	25.18419000000000	0.00000000000000	0.00000000000000	7.41952200000000	0.00000000000000	
13.11495500000000	-62.87855500000000	710.31268699999998	45.46328500000000	0.12733600000000	0.00000000000000	0.11709800000000	-1.39057800000000	172.36166800000001	8.67191700000000	0.41065400000000	0.00000000000000	-0.06640200000000	0.00000000000000	25.05074200000000	0.00000000000000	0.00000000000000	7.32823800000000	0.00000000000000	
13.11661800000000	-63.42274700000000	704.76991399999997	44.67874400000000	0.12674000000000	0.00000000000000	0.11691800000000	-0.38222900000000	179.19902900000000	8.32037100000000	0.41218600000000	0.00000000000000	-0.06654900000000	0.00000000000000	24.91364000000000	0.00000000000000	0.00000000000000	7.21611800000000	0.00000000000000	
13.11828500000000	-63.95358100000000	699.06856400000004	43.87021100000000	0.12616400000000	0.00000000000000	0.11673200000000	0.67538400000000	186.12309700000000	7.93329600000000	0.41366300000000	0.00000000000000	-0.06669400000000	0.00000000000000	24.77265900000000	0.00000000000000	0.00000000000000	7.08124800000000	0.00000000000000	
13.11995100000000	-64.46969000000000	693.20911999999998	43.03837000000000	0.12560800000000	0.00000000000000	0.11654000000000	1.78375100000000	193.11971399999999	7.50874300000000	0.41508500000000	0.00000000000000	-0.06683700000000	0.00000000000000	24.62757200000000	0.00000000000000	0.00000000000000	6.92208800000000	0.00000000000000	
